<svg xmlns="http://www.w3.org/2000/svg" width="32" height="32" viewBox="0 0 32 32">
  <rect width="32" height="32" rx="4" fill="#2b2f33"/>
  <rect x="5" y="20" width="4" height="4" rx="1" fill="#7f8fa0"/>
  <rect x="23" y="20" width="4" height="4" rx="1" fill="#7f8fa0"/>
  <path d="M7 22 H10 C7 14 12 8 18 10 C25 12 26 22 18 25 C10 28 5 18 12 14 C19 10 24 19 17 22 C12 24 9 18 14 16 C19 14 21 20 16 21 C13 22 12 19 15 18 H25" fill="none" stroke="#e59a52" stroke-width="2" stroke-linecap="round" stroke-linejoin="round"/>
  <path d="M10 22 C7 14 12 8 18 10" fill="none" stroke="#f0a65b" stroke-width="1" stroke-linecap="round" opacity="0.7"/>
  <path d="M20 12 C25 15 24 23 18 25" fill="none" stroke="#b86f37" stroke-width="1" stroke-linecap="round" opacity="0.65"/>
</svg>
