<svg xmlns="http://www.w3.org/2000/svg" width="32" height="32" viewBox="0 0 32 32">
  <rect width="32" height="32" rx="4" fill="#2b2f33"/>
  <rect x="5" y="20" width="4" height="4" rx="1" fill="#7f8fa0"/>
  <rect x="23" y="20" width="4" height="4" rx="1" fill="#7f8fa0"/>
  <path d="M7 22 H10 C7 14 12 8 18 10 C25 12 26 22 18 25 C10 28 5 18 12 14 C19 10 24 19 17 22 C12 24 9 18 14 16 C19 14 21 20 16 21 H25" fill="none" stroke="#e59a52" stroke-width="1.9" stroke-linecap="round" stroke-linejoin="round"/>
  <rect x="13" y="14" width="6" height="6" rx="1.5" fill="#56616d"/>
  <circle cx="16" cy="17" r="1.9" fill="#9bd3ff"/>
  <path d="M13 17 H10 M19 17 H22" stroke="#7ec7ff" stroke-width="1.3" stroke-linecap="round" opacity="0.85"/>
  <path d="M12 14 C14 12 18 12 20 14" fill="none" stroke="#dbeeff" stroke-width="1.1" stroke-linecap="round" opacity="0.75"/>
</svg>
