<svg xmlns="http://www.w3.org/2000/svg" width="64" height="64" viewBox="0 0 64 64">
  <defs>
    <filter id="glow" x="-40%" y="-40%" width="180%" height="180%">
      <feGaussianBlur stdDeviation="1.4" result="blur"/>
      <feMerge>
        <feMergeNode in="blur"/>
        <feMergeNode in="SourceGraphic"/>
      </feMerge>
    </filter>
  </defs>
  <g fill="none" stroke-linecap="round" stroke-linejoin="round">
    <path d="M18 24h-5M18 40h-5M45 24h5M45 40h5" stroke="#5fc8ff" stroke-width="2" opacity=".52"/>
    <path d="M23 16h18l7 9v14l-7 9H23l-7-9V25z" fill="#192833" stroke="#7fd9ff" stroke-width="2.3" filter="url(#glow)"/>
    <path d="M25 22h14l4 5v10l-4 5H25l-4-5V27z" fill="#314453" stroke="#d5f2ff" stroke-width="1.4" opacity=".95"/>
    <circle cx="32" cy="32" r="6.2" fill="#d5f2ff" opacity=".18"/>
    <circle cx="32" cy="32" r="3.8" fill="#8fe8ff" opacity=".8"/>
    <path d="M43 29l8-3 5 5-5 5-8-3z" fill="#f0a43a" stroke="#ffd486" stroke-width="1.6"/>
    <path d="M47 28l4-1.4M49 31l4-1.4M47 34l4 1.4M49 31l4 1.4" stroke="#70481f" stroke-width="1.1" opacity=".8"/>
    <path d="M46 23c3.8 1.5 6.8 4.7 8 9-1.2 4.3-4.2 7.5-8 9" stroke="#ffc55d" stroke-width="1.8" opacity=".38"/>
    <path d="M18 20l-5-4M18 44l-5 4M46 20l5-4M46 44l5 4" stroke="#7fd9ff" stroke-width="1.4" opacity=".42"/>
  </g>
</svg>
