<svg xmlns="http://www.w3.org/2000/svg" width="96" height="96" viewBox="0 0 96 96">
  <defs>
    <linearGradient id="armor" x1="18" y1="28" x2="78" y2="68" gradientUnits="userSpaceOnUse">
      <stop offset="0" stop-color="#5b2a23"/>
      <stop offset="0.55" stop-color="#8d3b2b"/>
      <stop offset="1" stop-color="#2a1717"/>
    </linearGradient>
    <linearGradient id="horn" x1="56" y1="32" x2="86" y2="50" gradientUnits="userSpaceOnUse">
      <stop offset="0" stop-color="#ffd8a8"/>
      <stop offset="1" stop-color="#ff7a45"/>
    </linearGradient>
  </defs>
  <g fill="none" stroke-linecap="round" stroke-linejoin="round">
    <path d="M17 45l10-15h30l20 10 8 9-8 9-20 10H27L17 53z" fill="url(#armor)" stroke="#ff9b62" stroke-width="3.2"/>
    <path d="M57 30l28 19-28 19 9-19z" fill="url(#horn)" stroke="#ffe0b8" stroke-width="2.8"/>
    <path d="M24 37h28M24 61h28" stroke="#241313" stroke-width="7"/>
    <path d="M30 38h22M30 60h22" stroke="#d7633f" stroke-width="4"/>
    <path d="M31 46h22M31 52h22" stroke="#ffc17a" stroke-width="2.4"/>
    <path d="M42 31l8-8 9 8M42 67l8 8 9-8" fill="#3a1d1b" stroke="#ffbd82" stroke-width="2.4"/>
    <circle cx="23" cy="49" r="4" fill="#ffe2ad" stroke="#2b1715" stroke-width="1.8"/>
    <path d="M70 42l9 7-9 7" stroke="#7a211b" stroke-width="3.2"/>
  </g>
</svg>
