<svg xmlns="http://www.w3.org/2000/svg" width="1152" height="64" viewBox="0 0 1152 64">
  <defs>
    <clipPath id="tile_clip"><rect x="0" y="0" width="64" height="64"/></clipPath>
  </defs>
  <g id="gate_area_fill" transform="translate(0 0)" clip-path="url(#tile_clip)">
<rect width="64" height="64" fill="#071316"/>
  <rect x="0" y="0" width="64" height="64" fill="#0c252b" opacity="0.46"/>
  <path d="M0 32 H64 M32 0 V64" fill="none" stroke="#7de7ff" stroke-width="1" opacity="0.12"/>
  </g>
  <g id="gate_area_edge_n" transform="translate(64 0)" clip-path="url(#tile_clip)">
<rect width="64" height="64" fill="#071316"/>
  <rect x="0" y="0" width="64" height="64" fill="#0c252b" opacity="0.46"/>
  <path d="M0 10 H64 M0 16 H64" fill="none" stroke="#7de7ff" stroke-width="1.8" stroke-linecap="square" opacity="0.78"/>
  <path d="M14 24 H28 M38 24 H52" fill="none" stroke="#b8f6ff" stroke-width="1.1" opacity="0.24"/>
  </g>
  <g id="gate_area_edge_s" transform="translate(128 0)" clip-path="url(#tile_clip)">
<rect width="64" height="64" fill="#071316"/>
  <rect x="0" y="0" width="64" height="64" fill="#0c252b" opacity="0.46"/>
  <path d="M0 48 H64 M0 54 H64" fill="none" stroke="#7de7ff" stroke-width="1.8" stroke-linecap="square" opacity="0.78"/>
  <path d="M14 40 H28 M38 40 H52" fill="none" stroke="#b8f6ff" stroke-width="1.1" opacity="0.24"/>
  </g>
  <g id="gate_area_edge_w" transform="translate(192 0)" clip-path="url(#tile_clip)">
<rect width="64" height="64" fill="#071316"/>
  <rect x="0" y="0" width="64" height="64" fill="#0c252b" opacity="0.46"/>
  <path d="M10 0 V64 M16 0 V64" fill="none" stroke="#7de7ff" stroke-width="1.8" stroke-linecap="square" opacity="0.78"/>
  <path d="M24 14 V28 M24 38 V52" fill="none" stroke="#b8f6ff" stroke-width="1.1" opacity="0.24"/>
  </g>
  <g id="gate_area_edge_e" transform="translate(256 0)" clip-path="url(#tile_clip)">
<rect width="64" height="64" fill="#071316"/>
  <rect x="0" y="0" width="64" height="64" fill="#0c252b" opacity="0.46"/>
  <path d="M48 0 V64 M54 0 V64" fill="none" stroke="#7de7ff" stroke-width="1.8" stroke-linecap="square" opacity="0.78"/>
  <path d="M40 14 V28 M40 38 V52" fill="none" stroke="#b8f6ff" stroke-width="1.1" opacity="0.24"/>
  </g>
  <g id="gate_area_corner_nw" transform="translate(320 0)" clip-path="url(#tile_clip)">
<rect width="64" height="64" fill="#071316"/>
  <rect x="0" y="0" width="64" height="64" fill="#0c252b" opacity="0.46"/>
  <path d="M10 64 V10 H64 M16 64 V16 H64" fill="none" stroke="#7de7ff" stroke-width="1.8" stroke-linejoin="miter" stroke-linecap="square" opacity="0.78"/>
  <path d="M25 25 H42 M25 25 V42" fill="none" stroke="#b8f6ff" stroke-width="1.1" opacity="0.24"/>
  </g>
  <g id="gate_area_corner_ne" transform="translate(384 0)" clip-path="url(#tile_clip)">
<rect width="64" height="64" fill="#071316"/>
  <rect x="0" y="0" width="64" height="64" fill="#0c252b" opacity="0.46"/>
  <path d="M0 10 H54 V64 M0 16 H48 V64" fill="none" stroke="#7de7ff" stroke-width="1.8" stroke-linejoin="miter" stroke-linecap="square" opacity="0.78"/>
  <path d="M22 25 H39 M39 25 V42" fill="none" stroke="#b8f6ff" stroke-width="1.1" opacity="0.24"/>
  </g>
  <g id="gate_area_corner_sw" transform="translate(448 0)" clip-path="url(#tile_clip)">
<rect width="64" height="64" fill="#071316"/>
  <rect x="0" y="0" width="64" height="64" fill="#0c252b" opacity="0.46"/>
  <path d="M10 0 V54 H64 M16 0 V48 H64" fill="none" stroke="#7de7ff" stroke-width="1.8" stroke-linejoin="miter" stroke-linecap="square" opacity="0.78"/>
  <path d="M25 22 V39 H42" fill="none" stroke="#b8f6ff" stroke-width="1.1" opacity="0.24"/>
  </g>
  <g id="gate_area_corner_se" transform="translate(512 0)" clip-path="url(#tile_clip)">
<rect width="64" height="64" fill="#071316"/>
  <rect x="0" y="0" width="64" height="64" fill="#0c252b" opacity="0.46"/>
  <path d="M0 54 H54 V0 M0 48 H48 V0" fill="none" stroke="#7de7ff" stroke-width="1.8" stroke-linejoin="miter" stroke-linecap="square" opacity="0.78"/>
  <path d="M22 39 H39 V22" fill="none" stroke="#b8f6ff" stroke-width="1.1" opacity="0.24"/>
  </g>
  <g id="gate_floor_h" transform="translate(576 0)" clip-path="url(#tile_clip)">
<rect x="0" y="0" width="64" height="64" fill="#081316"/>
  <rect x="0" y="20" width="64" height="24" fill="#0c252b" opacity="0.78"/>
  <path d="M0 24 H64 M0 40 H64" fill="none" stroke="#7de7ff" stroke-width="2" stroke-linecap="square" opacity="0.86"/>
  <path d="M0 32 H64" fill="none" stroke="#b8f6ff" stroke-width="1.1" stroke-linecap="square" opacity="0.38"/>
  <path d="M16 20 V44 M48 20 V44" fill="none" stroke="#7de7ff" stroke-width="1" opacity="0.18"/>
  </g>
  <g id="gate_floor_v" transform="translate(640 0)" clip-path="url(#tile_clip)">
<rect x="0" y="0" width="64" height="64" fill="#081316"/>
  <rect x="20" y="0" width="24" height="64" fill="#0c252b" opacity="0.78"/>
  <path d="M24 0 V64 M40 0 V64" fill="none" stroke="#7de7ff" stroke-width="2" stroke-linecap="square" opacity="0.86"/>
  <path d="M32 0 V64" fill="none" stroke="#b8f6ff" stroke-width="1.1" stroke-linecap="square" opacity="0.38"/>
  <path d="M20 16 H44 M20 48 H44" fill="none" stroke="#7de7ff" stroke-width="1" opacity="0.18"/>
  </g>
  <g id="gate_corner_ne" transform="translate(704 0)" clip-path="url(#tile_clip)">
<rect x="0" y="0" width="64" height="64" fill="#081316"/>
  <path d="M32 64 V32 H64" fill="none" stroke="#0c252b" stroke-width="24" stroke-linecap="butt" stroke-linejoin="miter" opacity="0.78"/>
  <path d="M24 64 V24 H64 M40 64 V40 H64" fill="none" stroke="#7de7ff" stroke-width="2" stroke-linecap="square" opacity="0.86"/>
  <path d="M32 64 V32 H64" fill="none" stroke="#b8f6ff" stroke-width="1.1" stroke-linecap="square" opacity="0.38"/>
  </g>
  <g id="gate_corner_nw" transform="translate(768 0)" clip-path="url(#tile_clip)">
<rect x="0" y="0" width="64" height="64" fill="#081316"/>
  <path d="M32 64 V32 H0" fill="none" stroke="#0c252b" stroke-width="24" stroke-linecap="butt" stroke-linejoin="miter" opacity="0.78"/>
  <path d="M24 64 V40 H0 M40 64 V24 H0" fill="none" stroke="#7de7ff" stroke-width="2" stroke-linecap="square" opacity="0.86"/>
  <path d="M32 64 V32 H0" fill="none" stroke="#b8f6ff" stroke-width="1.1" stroke-linecap="square" opacity="0.38"/>
  </g>
  <g id="gate_corner_se" transform="translate(832 0)" clip-path="url(#tile_clip)">
<rect x="0" y="0" width="64" height="64" fill="#081316"/>
  <path d="M32 0 V32 H64" fill="none" stroke="#0c252b" stroke-width="24" stroke-linecap="butt" stroke-linejoin="miter" opacity="0.78"/>
  <path d="M24 0 V40 H64 M40 0 V24 H64" fill="none" stroke="#7de7ff" stroke-width="2" stroke-linecap="square" opacity="0.86"/>
  <path d="M32 0 V32 H64" fill="none" stroke="#b8f6ff" stroke-width="1.1" stroke-linecap="square" opacity="0.38"/>
  </g>
  <g id="gate_corner_sw" transform="translate(896 0)" clip-path="url(#tile_clip)">
<rect x="0" y="0" width="64" height="64" fill="#081316"/>
  <path d="M32 0 V32 H0" fill="none" stroke="#0c252b" stroke-width="24" stroke-linecap="butt" stroke-linejoin="miter" opacity="0.78"/>
  <path d="M24 0 V24 H0 M40 0 V40 H0" fill="none" stroke="#7de7ff" stroke-width="2" stroke-linecap="square" opacity="0.86"/>
  <path d="M32 0 V32 H0" fill="none" stroke="#b8f6ff" stroke-width="1.1" stroke-linecap="square" opacity="0.38"/>
  </g>
  <g id="gate_cross" transform="translate(960 0)" clip-path="url(#tile_clip)">
<rect x="0" y="0" width="64" height="64" fill="#081316"/>
  <rect x="0" y="22" width="64" height="20" fill="#0c252b" opacity="0.74"/>
  <rect x="22" y="0" width="20" height="64" fill="#0c252b" opacity="0.74"/>
  <path d="M0 24 H64 M0 40 H64 M24 0 V64 M40 0 V64" fill="none" stroke="#7de7ff" stroke-width="1.8" stroke-linecap="square" opacity="0.72"/>
  <circle cx="32" cy="32" r="4" fill="none" stroke="#b8f6ff" stroke-width="1.2" opacity="0.52"/>
  </g>
  <g id="bypass_floor_h" transform="translate(1024 0)" clip-path="url(#tile_clip)">
<rect x="0" y="0" width="64" height="64" fill="#15100b"/>
  <rect x="0" y="22" width="64" height="20" fill="#2a190d" opacity="0.72"/>
  <path d="M0 24 H64 M0 40 H64" fill="none" stroke="#ff9b45" stroke-width="1.8" stroke-linecap="square" opacity="0.70"/>
  <path d="M8 40 L24 24 M40 40 L56 24" fill="none" stroke="#ffbd72" stroke-width="1.4" stroke-linecap="square" opacity="0.44"/>
  </g>
  <g id="bypass_floor_v" transform="translate(1088 0)" clip-path="url(#tile_clip)">
<rect x="0" y="0" width="64" height="64" fill="#15100b"/>
  <rect x="22" y="0" width="20" height="64" fill="#2a190d" opacity="0.72"/>
  <path d="M24 0 V64 M40 0 V64" fill="none" stroke="#ff9b45" stroke-width="1.8" stroke-linecap="square" opacity="0.70"/>
  <path d="M40 8 L24 24 M40 40 L24 56" fill="none" stroke="#ffbd72" stroke-width="1.4" stroke-linecap="square" opacity="0.44"/>
  </g>
</svg>

