<svg xmlns="http://www.w3.org/2000/svg" width="640" height="256" viewBox="0 0 640 256">
  <defs><clipPath id="tile_clip"><rect x="0" y="0" width="64" height="64"/></clipPath></defs>
  <g id="crystal_frontier_fill" transform="translate(0 0)" clip-path="url(#tile_clip)">
<defs>
    <clipPath id="tile_clip"><rect x="0" y="0" width="64" height="64"/></clipPath>
  </defs>
  <g clip-path="url(#tile_clip)">
    <rect x="0" y="0" width="64" height="64" fill="#06171c"/>
    <rect x="0" y="0" width="64" height="64" fill="#0b3440" opacity="0.50"/>
    <path d="M0 32 H64 M32 0 V64" fill="none" stroke="#73e7ff" stroke-width="1" opacity="0.08"/>
    <path d="M13 46 L21 22 L30 46 Z M36 50 L43 30 L51 50 Z" fill="#2b7180" opacity="0.36"/>
    <path d="M21 22 L25 44 M43 30 L47 48 M14 42 H30 M37 46 H51" fill="none" stroke="#a6f6ff" stroke-width="1.2" opacity="0.42"/>
  </g>
  </g>
  <g id="crystal_frontier_edge_h" transform="translate(64 0)" clip-path="url(#tile_clip)">
<defs>
    <clipPath id="tile_clip"><rect x="0" y="0" width="64" height="64"/></clipPath>
  </defs>
  <g clip-path="url(#tile_clip)">
    <rect x="0" y="0" width="64" height="64" fill="#06171c"/>
    <rect x="0" y="0" width="64" height="64" fill="#0b3440" opacity="0.50"/>
    <path d="M0 32 H64 M32 0 V64" fill="none" stroke="#73e7ff" stroke-width="1" opacity="0.08"/>
    <rect x="0" y="21" width="64" height="22" fill="#2b7180" opacity="0.22"/>
    <path d="M0 24 H64 M0 40 H64" fill="none" stroke="#73e7ff" stroke-width="2.2" stroke-linecap="square" opacity="0.82"/>
    <path d="M0 32 H64" fill="none" stroke="#a6f6ff" stroke-width="1.1" stroke-linecap="square" opacity="0.34"/>
    <path d="M44 42 L50 28 L56 42 Z" fill="#2b7180" opacity="0.30"/>
  </g>
  </g>
  <g id="crystal_frontier_edge_v" transform="translate(128 0)" clip-path="url(#tile_clip)">
<defs>
    <clipPath id="tile_clip"><rect x="0" y="0" width="64" height="64"/></clipPath>
  </defs>
  <g clip-path="url(#tile_clip)">
    <rect x="0" y="0" width="64" height="64" fill="#06171c"/>
    <rect x="0" y="0" width="64" height="64" fill="#0b3440" opacity="0.50"/>
    <path d="M0 32 H64 M32 0 V64" fill="none" stroke="#73e7ff" stroke-width="1" opacity="0.08"/>
    <rect x="21" y="0" width="22" height="64" fill="#2b7180" opacity="0.22"/>
    <path d="M24 0 V64 M40 0 V64" fill="none" stroke="#73e7ff" stroke-width="2.2" stroke-linecap="square" opacity="0.82"/>
    <path d="M32 0 V64" fill="none" stroke="#a6f6ff" stroke-width="1.1" stroke-linecap="square" opacity="0.34"/>
    <path d="M44 42 L50 28 L56 42 Z" fill="#2b7180" opacity="0.30"/>
  </g>
  </g>
  <g id="crystal_frontier_corner_ne" transform="translate(192 0)" clip-path="url(#tile_clip)">
<defs>
    <clipPath id="tile_clip"><rect x="0" y="0" width="64" height="64"/></clipPath>
  </defs>
  <g clip-path="url(#tile_clip)">
    <rect x="0" y="0" width="64" height="64" fill="#06171c"/>
    <rect x="0" y="0" width="64" height="64" fill="#0b3440" opacity="0.50"/>
    <path d="M0 32 H64 M32 0 V64" fill="none" stroke="#73e7ff" stroke-width="1" opacity="0.08"/>
    <path d="M0 24 H40 V64 M0 40 H24 V64" fill="none" stroke="#73e7ff" stroke-width="2.2" stroke-linecap="square" stroke-linejoin="round" opacity="0.82"/>
    <path d="M0 32 H32 V64" fill="none" stroke="#a6f6ff" stroke-width="1.1" opacity="0.34"/>
    <path d="M22 22 H42 V42" fill="none" stroke="#2b7180" stroke-width="8" opacity="0.18"/>
    <path d="M44 42 L50 28 L56 42 Z" fill="#2b7180" opacity="0.30"/>
  </g>
  </g>
  <g id="crystal_frontier_corner_nw" transform="translate(256 0)" clip-path="url(#tile_clip)">
<defs>
    <clipPath id="tile_clip"><rect x="0" y="0" width="64" height="64"/></clipPath>
  </defs>
  <g clip-path="url(#tile_clip)">
    <rect x="0" y="0" width="64" height="64" fill="#06171c"/>
    <rect x="0" y="0" width="64" height="64" fill="#0b3440" opacity="0.50"/>
    <path d="M0 32 H64 M32 0 V64" fill="none" stroke="#73e7ff" stroke-width="1" opacity="0.08"/>
    <path d="M64 24 H24 V64 M64 40 H40 V64" fill="none" stroke="#73e7ff" stroke-width="2.2" stroke-linecap="square" stroke-linejoin="round" opacity="0.82"/>
    <path d="M64 32 H32 V64" fill="none" stroke="#a6f6ff" stroke-width="1.1" opacity="0.34"/>
    <path d="M42 22 H22 V42" fill="none" stroke="#2b7180" stroke-width="8" opacity="0.18"/>
    <path d="M44 42 L50 28 L56 42 Z" fill="#2b7180" opacity="0.30"/>
  </g>
  </g>
  <g id="crystal_frontier_corner_se" transform="translate(320 0)" clip-path="url(#tile_clip)">
<defs>
    <clipPath id="tile_clip"><rect x="0" y="0" width="64" height="64"/></clipPath>
  </defs>
  <g clip-path="url(#tile_clip)">
    <rect x="0" y="0" width="64" height="64" fill="#06171c"/>
    <rect x="0" y="0" width="64" height="64" fill="#0b3440" opacity="0.50"/>
    <path d="M0 32 H64 M32 0 V64" fill="none" stroke="#73e7ff" stroke-width="1" opacity="0.08"/>
    <path d="M0 24 H24 V0 M0 40 H40 V0" fill="none" stroke="#73e7ff" stroke-width="2.2" stroke-linecap="square" stroke-linejoin="round" opacity="0.82"/>
    <path d="M0 32 H32 V0" fill="none" stroke="#a6f6ff" stroke-width="1.1" opacity="0.34"/>
    <path d="M22 42 H42 V22" fill="none" stroke="#2b7180" stroke-width="8" opacity="0.18"/>
    <path d="M44 42 L50 28 L56 42 Z" fill="#2b7180" opacity="0.30"/>
  </g>
  </g>
  <g id="crystal_frontier_corner_sw" transform="translate(384 0)" clip-path="url(#tile_clip)">
<defs>
    <clipPath id="tile_clip"><rect x="0" y="0" width="64" height="64"/></clipPath>
  </defs>
  <g clip-path="url(#tile_clip)">
    <rect x="0" y="0" width="64" height="64" fill="#06171c"/>
    <rect x="0" y="0" width="64" height="64" fill="#0b3440" opacity="0.50"/>
    <path d="M0 32 H64 M32 0 V64" fill="none" stroke="#73e7ff" stroke-width="1" opacity="0.08"/>
    <path d="M64 24 H40 V0 M64 40 H24 V0" fill="none" stroke="#73e7ff" stroke-width="2.2" stroke-linecap="square" stroke-linejoin="round" opacity="0.82"/>
    <path d="M64 32 H32 V0" fill="none" stroke="#a6f6ff" stroke-width="1.1" opacity="0.34"/>
    <path d="M42 42 H22 V22" fill="none" stroke="#2b7180" stroke-width="8" opacity="0.18"/>
    <path d="M44 42 L50 28 L56 42 Z" fill="#2b7180" opacity="0.30"/>
  </g>
  </g>
  <g id="crystal_frontier_end_cap" transform="translate(448 0)" clip-path="url(#tile_clip)">
<defs>
    <clipPath id="tile_clip"><rect x="0" y="0" width="64" height="64"/></clipPath>
  </defs>
  <g clip-path="url(#tile_clip)">
    <rect x="0" y="0" width="64" height="64" fill="#06171c"/>
    <rect x="0" y="0" width="64" height="64" fill="#0b3440" opacity="0.50"/>
    <path d="M0 32 H64 M32 0 V64" fill="none" stroke="#73e7ff" stroke-width="1" opacity="0.08"/>
    <rect x="0" y="21" width="36" height="22" fill="#2b7180" opacity="0.22"/>
    <path d="M0 24 H34 M0 40 H34" fill="none" stroke="#73e7ff" stroke-width="2.2" stroke-linecap="square" opacity="0.82"/>
    <path d="M35 17 V47 M42 22 V42 M49 27 V37" fill="none" stroke="#a6f6ff" stroke-width="2" stroke-linecap="square" opacity="0.70"/>
    <path d="M0 32 H31" fill="none" stroke="#a6f6ff" stroke-width="1.1" opacity="0.34"/>
    <path d="M44 42 L50 28 L56 42 Z" fill="#2b7180" opacity="0.30"/>
  </g>
  </g>
  <g id="crystal_frontier_edge_diag_down" transform="translate(512 0)" clip-path="url(#tile_clip)">
<defs>
    <clipPath id="tile_clip"><rect x="0" y="0" width="64" height="64"/></clipPath>
  </defs>
  <g clip-path="url(#tile_clip)">
    <rect x="0" y="0" width="64" height="64" fill="#06171c"/>
    <rect x="0" y="0" width="64" height="64" fill="#0b3440" opacity="0.50"/>
    <path d="M0 32 H64 M32 0 V64" fill="none" stroke="#73e7ff" stroke-width="1" opacity="0.08"/>
    <path d="M-8 14 L50 72 M14 -8 L72 50" fill="none" stroke="#73e7ff" stroke-width="2.2" stroke-linecap="square" opacity="0.84"/>
    <path d="M2 2 L62 62" fill="none" stroke="#a6f6ff" stroke-width="1.2" stroke-linecap="square" opacity="0.38"/>
    <path d="M-5 24 L40 69 M24 -5 L69 40" fill="none" stroke="#2b7180" stroke-width="7" opacity="0.16"/>
    <path d="M44 42 L50 28 L56 42 Z" fill="#2b7180" opacity="0.30"/>
  </g>
  </g>
  <g id="crystal_frontier_edge_diag_up" transform="translate(576 0)" clip-path="url(#tile_clip)">
<defs>
    <clipPath id="tile_clip"><rect x="0" y="0" width="64" height="64"/></clipPath>
  </defs>
  <g clip-path="url(#tile_clip)">
    <rect x="0" y="0" width="64" height="64" fill="#06171c"/>
    <rect x="0" y="0" width="64" height="64" fill="#0b3440" opacity="0.50"/>
    <path d="M0 32 H64 M32 0 V64" fill="none" stroke="#73e7ff" stroke-width="1" opacity="0.08"/>
    <path d="M-8 50 L50 -8 M14 72 L72 14" fill="none" stroke="#73e7ff" stroke-width="2.2" stroke-linecap="square" opacity="0.84"/>
    <path d="M2 62 L62 2" fill="none" stroke="#a6f6ff" stroke-width="1.2" stroke-linecap="square" opacity="0.38"/>
    <path d="M-5 40 L40 -5 M24 69 L69 24" fill="none" stroke="#2b7180" stroke-width="7" opacity="0.16"/>
    <path d="M44 42 L50 28 L56 42 Z" fill="#2b7180" opacity="0.30"/>
  </g>
  </g>
  <g id="wreckage_frontier_fill" transform="translate(0 64)" clip-path="url(#tile_clip)">
<defs>
    <clipPath id="tile_clip"><rect x="0" y="0" width="64" height="64"/></clipPath>
  </defs>
  <g clip-path="url(#tile_clip)">
    <rect x="0" y="0" width="64" height="64" fill="#17100b"/>
    <rect x="0" y="0" width="64" height="64" fill="#332015" opacity="0.50"/>
    <path d="M0 32 H64 M32 0 V64" fill="none" stroke="#f0a058" stroke-width="1" opacity="0.08"/>
    <path d="M13 19 L49 50 M49 15 L22 41" fill="none" stroke="#7c4d2b" stroke-width="2" stroke-linecap="round" opacity="0.48"/>
    <path d="M19 29 H34 M35 22 H48 M22 50 H38" fill="none" stroke="#ffd08d" stroke-width="1.3" opacity="0.34"/>
  </g>
  </g>
  <g id="wreckage_frontier_edge_h" transform="translate(64 64)" clip-path="url(#tile_clip)">
<defs>
    <clipPath id="tile_clip"><rect x="0" y="0" width="64" height="64"/></clipPath>
  </defs>
  <g clip-path="url(#tile_clip)">
    <rect x="0" y="0" width="64" height="64" fill="#17100b"/>
    <rect x="0" y="0" width="64" height="64" fill="#332015" opacity="0.50"/>
    <path d="M0 32 H64 M32 0 V64" fill="none" stroke="#f0a058" stroke-width="1" opacity="0.08"/>
    <rect x="0" y="21" width="64" height="22" fill="#7c4d2b" opacity="0.22"/>
    <path d="M0 24 H64 M0 40 H64" fill="none" stroke="#f0a058" stroke-width="2.2" stroke-linecap="square" opacity="0.82"/>
    <path d="M0 32 H64" fill="none" stroke="#ffd08d" stroke-width="1.1" stroke-linecap="square" opacity="0.34"/>
    <path d="M42 18 L54 31 M47 45 L56 37" fill="none" stroke="#7c4d2b" stroke-width="1.8" opacity="0.42"/>
  </g>
  </g>
  <g id="wreckage_frontier_edge_v" transform="translate(128 64)" clip-path="url(#tile_clip)">
<defs>
    <clipPath id="tile_clip"><rect x="0" y="0" width="64" height="64"/></clipPath>
  </defs>
  <g clip-path="url(#tile_clip)">
    <rect x="0" y="0" width="64" height="64" fill="#17100b"/>
    <rect x="0" y="0" width="64" height="64" fill="#332015" opacity="0.50"/>
    <path d="M0 32 H64 M32 0 V64" fill="none" stroke="#f0a058" stroke-width="1" opacity="0.08"/>
    <rect x="21" y="0" width="22" height="64" fill="#7c4d2b" opacity="0.22"/>
    <path d="M24 0 V64 M40 0 V64" fill="none" stroke="#f0a058" stroke-width="2.2" stroke-linecap="square" opacity="0.82"/>
    <path d="M32 0 V64" fill="none" stroke="#ffd08d" stroke-width="1.1" stroke-linecap="square" opacity="0.34"/>
    <path d="M42 18 L54 31 M47 45 L56 37" fill="none" stroke="#7c4d2b" stroke-width="1.8" opacity="0.42"/>
  </g>
  </g>
  <g id="wreckage_frontier_corner_ne" transform="translate(192 64)" clip-path="url(#tile_clip)">
<defs>
    <clipPath id="tile_clip"><rect x="0" y="0" width="64" height="64"/></clipPath>
  </defs>
  <g clip-path="url(#tile_clip)">
    <rect x="0" y="0" width="64" height="64" fill="#17100b"/>
    <rect x="0" y="0" width="64" height="64" fill="#332015" opacity="0.50"/>
    <path d="M0 32 H64 M32 0 V64" fill="none" stroke="#f0a058" stroke-width="1" opacity="0.08"/>
    <path d="M0 24 H40 V64 M0 40 H24 V64" fill="none" stroke="#f0a058" stroke-width="2.2" stroke-linecap="square" stroke-linejoin="round" opacity="0.82"/>
    <path d="M0 32 H32 V64" fill="none" stroke="#ffd08d" stroke-width="1.1" opacity="0.34"/>
    <path d="M22 22 H42 V42" fill="none" stroke="#7c4d2b" stroke-width="8" opacity="0.18"/>
    <path d="M42 18 L54 31 M47 45 L56 37" fill="none" stroke="#7c4d2b" stroke-width="1.8" opacity="0.42"/>
  </g>
  </g>
  <g id="wreckage_frontier_corner_nw" transform="translate(256 64)" clip-path="url(#tile_clip)">
<defs>
    <clipPath id="tile_clip"><rect x="0" y="0" width="64" height="64"/></clipPath>
  </defs>
  <g clip-path="url(#tile_clip)">
    <rect x="0" y="0" width="64" height="64" fill="#17100b"/>
    <rect x="0" y="0" width="64" height="64" fill="#332015" opacity="0.50"/>
    <path d="M0 32 H64 M32 0 V64" fill="none" stroke="#f0a058" stroke-width="1" opacity="0.08"/>
    <path d="M64 24 H24 V64 M64 40 H40 V64" fill="none" stroke="#f0a058" stroke-width="2.2" stroke-linecap="square" stroke-linejoin="round" opacity="0.82"/>
    <path d="M64 32 H32 V64" fill="none" stroke="#ffd08d" stroke-width="1.1" opacity="0.34"/>
    <path d="M42 22 H22 V42" fill="none" stroke="#7c4d2b" stroke-width="8" opacity="0.18"/>
    <path d="M42 18 L54 31 M47 45 L56 37" fill="none" stroke="#7c4d2b" stroke-width="1.8" opacity="0.42"/>
  </g>
  </g>
  <g id="wreckage_frontier_corner_se" transform="translate(320 64)" clip-path="url(#tile_clip)">
<defs>
    <clipPath id="tile_clip"><rect x="0" y="0" width="64" height="64"/></clipPath>
  </defs>
  <g clip-path="url(#tile_clip)">
    <rect x="0" y="0" width="64" height="64" fill="#17100b"/>
    <rect x="0" y="0" width="64" height="64" fill="#332015" opacity="0.50"/>
    <path d="M0 32 H64 M32 0 V64" fill="none" stroke="#f0a058" stroke-width="1" opacity="0.08"/>
    <path d="M0 24 H24 V0 M0 40 H40 V0" fill="none" stroke="#f0a058" stroke-width="2.2" stroke-linecap="square" stroke-linejoin="round" opacity="0.82"/>
    <path d="M0 32 H32 V0" fill="none" stroke="#ffd08d" stroke-width="1.1" opacity="0.34"/>
    <path d="M22 42 H42 V22" fill="none" stroke="#7c4d2b" stroke-width="8" opacity="0.18"/>
    <path d="M42 18 L54 31 M47 45 L56 37" fill="none" stroke="#7c4d2b" stroke-width="1.8" opacity="0.42"/>
  </g>
  </g>
  <g id="wreckage_frontier_corner_sw" transform="translate(384 64)" clip-path="url(#tile_clip)">
<defs>
    <clipPath id="tile_clip"><rect x="0" y="0" width="64" height="64"/></clipPath>
  </defs>
  <g clip-path="url(#tile_clip)">
    <rect x="0" y="0" width="64" height="64" fill="#17100b"/>
    <rect x="0" y="0" width="64" height="64" fill="#332015" opacity="0.50"/>
    <path d="M0 32 H64 M32 0 V64" fill="none" stroke="#f0a058" stroke-width="1" opacity="0.08"/>
    <path d="M64 24 H40 V0 M64 40 H24 V0" fill="none" stroke="#f0a058" stroke-width="2.2" stroke-linecap="square" stroke-linejoin="round" opacity="0.82"/>
    <path d="M64 32 H32 V0" fill="none" stroke="#ffd08d" stroke-width="1.1" opacity="0.34"/>
    <path d="M42 42 H22 V22" fill="none" stroke="#7c4d2b" stroke-width="8" opacity="0.18"/>
    <path d="M42 18 L54 31 M47 45 L56 37" fill="none" stroke="#7c4d2b" stroke-width="1.8" opacity="0.42"/>
  </g>
  </g>
  <g id="wreckage_frontier_end_cap" transform="translate(448 64)" clip-path="url(#tile_clip)">
<defs>
    <clipPath id="tile_clip"><rect x="0" y="0" width="64" height="64"/></clipPath>
  </defs>
  <g clip-path="url(#tile_clip)">
    <rect x="0" y="0" width="64" height="64" fill="#17100b"/>
    <rect x="0" y="0" width="64" height="64" fill="#332015" opacity="0.50"/>
    <path d="M0 32 H64 M32 0 V64" fill="none" stroke="#f0a058" stroke-width="1" opacity="0.08"/>
    <rect x="0" y="21" width="36" height="22" fill="#7c4d2b" opacity="0.22"/>
    <path d="M0 24 H34 M0 40 H34" fill="none" stroke="#f0a058" stroke-width="2.2" stroke-linecap="square" opacity="0.82"/>
    <path d="M35 17 V47 M42 22 V42 M49 27 V37" fill="none" stroke="#ffd08d" stroke-width="2" stroke-linecap="square" opacity="0.70"/>
    <path d="M0 32 H31" fill="none" stroke="#ffd08d" stroke-width="1.1" opacity="0.34"/>
    <path d="M42 18 L54 31 M47 45 L56 37" fill="none" stroke="#7c4d2b" stroke-width="1.8" opacity="0.42"/>
  </g>
  </g>
  <g id="wreckage_frontier_edge_diag_down" transform="translate(512 64)" clip-path="url(#tile_clip)">
<defs>
    <clipPath id="tile_clip"><rect x="0" y="0" width="64" height="64"/></clipPath>
  </defs>
  <g clip-path="url(#tile_clip)">
    <rect x="0" y="0" width="64" height="64" fill="#17100b"/>
    <rect x="0" y="0" width="64" height="64" fill="#332015" opacity="0.50"/>
    <path d="M0 32 H64 M32 0 V64" fill="none" stroke="#f0a058" stroke-width="1" opacity="0.08"/>
    <path d="M-8 14 L50 72 M14 -8 L72 50" fill="none" stroke="#f0a058" stroke-width="2.2" stroke-linecap="square" opacity="0.84"/>
    <path d="M2 2 L62 62" fill="none" stroke="#ffd08d" stroke-width="1.2" stroke-linecap="square" opacity="0.38"/>
    <path d="M-5 24 L40 69 M24 -5 L69 40" fill="none" stroke="#7c4d2b" stroke-width="7" opacity="0.16"/>
    <path d="M42 18 L54 31 M47 45 L56 37" fill="none" stroke="#7c4d2b" stroke-width="1.8" opacity="0.42"/>
  </g>
  </g>
  <g id="wreckage_frontier_edge_diag_up" transform="translate(576 64)" clip-path="url(#tile_clip)">
<defs>
    <clipPath id="tile_clip"><rect x="0" y="0" width="64" height="64"/></clipPath>
  </defs>
  <g clip-path="url(#tile_clip)">
    <rect x="0" y="0" width="64" height="64" fill="#17100b"/>
    <rect x="0" y="0" width="64" height="64" fill="#332015" opacity="0.50"/>
    <path d="M0 32 H64 M32 0 V64" fill="none" stroke="#f0a058" stroke-width="1" opacity="0.08"/>
    <path d="M-8 50 L50 -8 M14 72 L72 14" fill="none" stroke="#f0a058" stroke-width="2.2" stroke-linecap="square" opacity="0.84"/>
    <path d="M2 62 L62 2" fill="none" stroke="#ffd08d" stroke-width="1.2" stroke-linecap="square" opacity="0.38"/>
    <path d="M-5 40 L40 -5 M24 69 L69 24" fill="none" stroke="#7c4d2b" stroke-width="7" opacity="0.16"/>
    <path d="M42 18 L54 31 M47 45 L56 37" fill="none" stroke="#7c4d2b" stroke-width="1.8" opacity="0.42"/>
  </g>
  </g>
  <g id="interference_frontier_fill" transform="translate(0 128)" clip-path="url(#tile_clip)">
<defs>
    <clipPath id="tile_clip"><rect x="0" y="0" width="64" height="64"/></clipPath>
  </defs>
  <g clip-path="url(#tile_clip)">
    <rect x="0" y="0" width="64" height="64" fill="#07160d"/>
    <rect x="0" y="0" width="64" height="64" fill="#112a19" opacity="0.50"/>
    <path d="M0 32 H64 M32 0 V64" fill="none" stroke="#95ff72" stroke-width="1" opacity="0.08"/>
    <path d="M10 18 H24 M34 18 H55 M14 32 H36 M44 32 H58 M7 46 H24 M34 46 H50" fill="none" stroke="#497d39" stroke-width="1.8" stroke-linecap="round" opacity="0.52"/>
  </g>
  </g>
  <g id="interference_frontier_edge_h" transform="translate(64 128)" clip-path="url(#tile_clip)">
<defs>
    <clipPath id="tile_clip"><rect x="0" y="0" width="64" height="64"/></clipPath>
  </defs>
  <g clip-path="url(#tile_clip)">
    <rect x="0" y="0" width="64" height="64" fill="#07160d"/>
    <rect x="0" y="0" width="64" height="64" fill="#112a19" opacity="0.50"/>
    <path d="M0 32 H64 M32 0 V64" fill="none" stroke="#95ff72" stroke-width="1" opacity="0.08"/>
    <rect x="0" y="21" width="64" height="22" fill="#497d39" opacity="0.22"/>
    <path d="M0 24 H64 M0 40 H64" fill="none" stroke="#95ff72" stroke-width="2.2" stroke-linecap="square" opacity="0.82"/>
    <path d="M0 32 H64" fill="none" stroke="#d1ff9a" stroke-width="1.1" stroke-linecap="square" opacity="0.34"/>
    <path d="M42 20 H54 M37 44 H51" fill="none" stroke="#497d39" stroke-width="1.6" opacity="0.42"/>
  </g>
  </g>
  <g id="interference_frontier_edge_v" transform="translate(128 128)" clip-path="url(#tile_clip)">
<defs>
    <clipPath id="tile_clip"><rect x="0" y="0" width="64" height="64"/></clipPath>
  </defs>
  <g clip-path="url(#tile_clip)">
    <rect x="0" y="0" width="64" height="64" fill="#07160d"/>
    <rect x="0" y="0" width="64" height="64" fill="#112a19" opacity="0.50"/>
    <path d="M0 32 H64 M32 0 V64" fill="none" stroke="#95ff72" stroke-width="1" opacity="0.08"/>
    <rect x="21" y="0" width="22" height="64" fill="#497d39" opacity="0.22"/>
    <path d="M24 0 V64 M40 0 V64" fill="none" stroke="#95ff72" stroke-width="2.2" stroke-linecap="square" opacity="0.82"/>
    <path d="M32 0 V64" fill="none" stroke="#d1ff9a" stroke-width="1.1" stroke-linecap="square" opacity="0.34"/>
    <path d="M42 20 H54 M37 44 H51" fill="none" stroke="#497d39" stroke-width="1.6" opacity="0.42"/>
  </g>
  </g>
  <g id="interference_frontier_corner_ne" transform="translate(192 128)" clip-path="url(#tile_clip)">
<defs>
    <clipPath id="tile_clip"><rect x="0" y="0" width="64" height="64"/></clipPath>
  </defs>
  <g clip-path="url(#tile_clip)">
    <rect x="0" y="0" width="64" height="64" fill="#07160d"/>
    <rect x="0" y="0" width="64" height="64" fill="#112a19" opacity="0.50"/>
    <path d="M0 32 H64 M32 0 V64" fill="none" stroke="#95ff72" stroke-width="1" opacity="0.08"/>
    <path d="M0 24 H40 V64 M0 40 H24 V64" fill="none" stroke="#95ff72" stroke-width="2.2" stroke-linecap="square" stroke-linejoin="round" opacity="0.82"/>
    <path d="M0 32 H32 V64" fill="none" stroke="#d1ff9a" stroke-width="1.1" opacity="0.34"/>
    <path d="M22 22 H42 V42" fill="none" stroke="#497d39" stroke-width="8" opacity="0.18"/>
    <path d="M42 20 H54 M37 44 H51" fill="none" stroke="#497d39" stroke-width="1.6" opacity="0.42"/>
  </g>
  </g>
  <g id="interference_frontier_corner_nw" transform="translate(256 128)" clip-path="url(#tile_clip)">
<defs>
    <clipPath id="tile_clip"><rect x="0" y="0" width="64" height="64"/></clipPath>
  </defs>
  <g clip-path="url(#tile_clip)">
    <rect x="0" y="0" width="64" height="64" fill="#07160d"/>
    <rect x="0" y="0" width="64" height="64" fill="#112a19" opacity="0.50"/>
    <path d="M0 32 H64 M32 0 V64" fill="none" stroke="#95ff72" stroke-width="1" opacity="0.08"/>
    <path d="M64 24 H24 V64 M64 40 H40 V64" fill="none" stroke="#95ff72" stroke-width="2.2" stroke-linecap="square" stroke-linejoin="round" opacity="0.82"/>
    <path d="M64 32 H32 V64" fill="none" stroke="#d1ff9a" stroke-width="1.1" opacity="0.34"/>
    <path d="M42 22 H22 V42" fill="none" stroke="#497d39" stroke-width="8" opacity="0.18"/>
    <path d="M42 20 H54 M37 44 H51" fill="none" stroke="#497d39" stroke-width="1.6" opacity="0.42"/>
  </g>
  </g>
  <g id="interference_frontier_corner_se" transform="translate(320 128)" clip-path="url(#tile_clip)">
<defs>
    <clipPath id="tile_clip"><rect x="0" y="0" width="64" height="64"/></clipPath>
  </defs>
  <g clip-path="url(#tile_clip)">
    <rect x="0" y="0" width="64" height="64" fill="#07160d"/>
    <rect x="0" y="0" width="64" height="64" fill="#112a19" opacity="0.50"/>
    <path d="M0 32 H64 M32 0 V64" fill="none" stroke="#95ff72" stroke-width="1" opacity="0.08"/>
    <path d="M0 24 H24 V0 M0 40 H40 V0" fill="none" stroke="#95ff72" stroke-width="2.2" stroke-linecap="square" stroke-linejoin="round" opacity="0.82"/>
    <path d="M0 32 H32 V0" fill="none" stroke="#d1ff9a" stroke-width="1.1" opacity="0.34"/>
    <path d="M22 42 H42 V22" fill="none" stroke="#497d39" stroke-width="8" opacity="0.18"/>
    <path d="M42 20 H54 M37 44 H51" fill="none" stroke="#497d39" stroke-width="1.6" opacity="0.42"/>
  </g>
  </g>
  <g id="interference_frontier_corner_sw" transform="translate(384 128)" clip-path="url(#tile_clip)">
<defs>
    <clipPath id="tile_clip"><rect x="0" y="0" width="64" height="64"/></clipPath>
  </defs>
  <g clip-path="url(#tile_clip)">
    <rect x="0" y="0" width="64" height="64" fill="#07160d"/>
    <rect x="0" y="0" width="64" height="64" fill="#112a19" opacity="0.50"/>
    <path d="M0 32 H64 M32 0 V64" fill="none" stroke="#95ff72" stroke-width="1" opacity="0.08"/>
    <path d="M64 24 H40 V0 M64 40 H24 V0" fill="none" stroke="#95ff72" stroke-width="2.2" stroke-linecap="square" stroke-linejoin="round" opacity="0.82"/>
    <path d="M64 32 H32 V0" fill="none" stroke="#d1ff9a" stroke-width="1.1" opacity="0.34"/>
    <path d="M42 42 H22 V22" fill="none" stroke="#497d39" stroke-width="8" opacity="0.18"/>
    <path d="M42 20 H54 M37 44 H51" fill="none" stroke="#497d39" stroke-width="1.6" opacity="0.42"/>
  </g>
  </g>
  <g id="interference_frontier_end_cap" transform="translate(448 128)" clip-path="url(#tile_clip)">
<defs>
    <clipPath id="tile_clip"><rect x="0" y="0" width="64" height="64"/></clipPath>
  </defs>
  <g clip-path="url(#tile_clip)">
    <rect x="0" y="0" width="64" height="64" fill="#07160d"/>
    <rect x="0" y="0" width="64" height="64" fill="#112a19" opacity="0.50"/>
    <path d="M0 32 H64 M32 0 V64" fill="none" stroke="#95ff72" stroke-width="1" opacity="0.08"/>
    <rect x="0" y="21" width="36" height="22" fill="#497d39" opacity="0.22"/>
    <path d="M0 24 H34 M0 40 H34" fill="none" stroke="#95ff72" stroke-width="2.2" stroke-linecap="square" opacity="0.82"/>
    <path d="M35 17 V47 M42 22 V42 M49 27 V37" fill="none" stroke="#d1ff9a" stroke-width="2" stroke-linecap="square" opacity="0.70"/>
    <path d="M0 32 H31" fill="none" stroke="#d1ff9a" stroke-width="1.1" opacity="0.34"/>
    <path d="M42 20 H54 M37 44 H51" fill="none" stroke="#497d39" stroke-width="1.6" opacity="0.42"/>
  </g>
  </g>
  <g id="interference_frontier_edge_diag_down" transform="translate(512 128)" clip-path="url(#tile_clip)">
<defs>
    <clipPath id="tile_clip"><rect x="0" y="0" width="64" height="64"/></clipPath>
  </defs>
  <g clip-path="url(#tile_clip)">
    <rect x="0" y="0" width="64" height="64" fill="#07160d"/>
    <rect x="0" y="0" width="64" height="64" fill="#112a19" opacity="0.50"/>
    <path d="M0 32 H64 M32 0 V64" fill="none" stroke="#95ff72" stroke-width="1" opacity="0.08"/>
    <path d="M-8 14 L50 72 M14 -8 L72 50" fill="none" stroke="#95ff72" stroke-width="2.2" stroke-linecap="square" opacity="0.84"/>
    <path d="M2 2 L62 62" fill="none" stroke="#d1ff9a" stroke-width="1.2" stroke-linecap="square" opacity="0.38"/>
    <path d="M-5 24 L40 69 M24 -5 L69 40" fill="none" stroke="#497d39" stroke-width="7" opacity="0.16"/>
    <path d="M42 20 H54 M37 44 H51" fill="none" stroke="#497d39" stroke-width="1.6" opacity="0.42"/>
  </g>
  </g>
  <g id="interference_frontier_edge_diag_up" transform="translate(576 128)" clip-path="url(#tile_clip)">
<defs>
    <clipPath id="tile_clip"><rect x="0" y="0" width="64" height="64"/></clipPath>
  </defs>
  <g clip-path="url(#tile_clip)">
    <rect x="0" y="0" width="64" height="64" fill="#07160d"/>
    <rect x="0" y="0" width="64" height="64" fill="#112a19" opacity="0.50"/>
    <path d="M0 32 H64 M32 0 V64" fill="none" stroke="#95ff72" stroke-width="1" opacity="0.08"/>
    <path d="M-8 50 L50 -8 M14 72 L72 14" fill="none" stroke="#95ff72" stroke-width="2.2" stroke-linecap="square" opacity="0.84"/>
    <path d="M2 62 L62 2" fill="none" stroke="#d1ff9a" stroke-width="1.2" stroke-linecap="square" opacity="0.38"/>
    <path d="M-5 40 L40 -5 M24 69 L69 24" fill="none" stroke="#497d39" stroke-width="7" opacity="0.16"/>
    <path d="M42 20 H54 M37 44 H51" fill="none" stroke="#497d39" stroke-width="1.6" opacity="0.42"/>
  </g>
  </g>
  <g id="core_frontier_fill" transform="translate(0 192)" clip-path="url(#tile_clip)">
<defs>
    <clipPath id="tile_clip"><rect x="0" y="0" width="64" height="64"/></clipPath>
  </defs>
  <g clip-path="url(#tile_clip)">
    <rect x="0" y="0" width="64" height="64" fill="#120a18"/>
    <rect x="0" y="0" width="64" height="64" fill="#291431" opacity="0.50"/>
    <path d="M0 32 H64 M32 0 V64" fill="none" stroke="#d091ff" stroke-width="1" opacity="0.08"/>
    <circle cx="32" cy="32" r="18" fill="none" stroke="#724287" stroke-width="1.7" opacity="0.46"/>
    <circle cx="32" cy="32" r="7" fill="none" stroke="#ff9be8" stroke-width="1.2" opacity="0.38"/>
    <path d="M13 32 H23 M41 32 H51 M32 13 V23 M32 41 V51" fill="none" stroke="#724287" stroke-width="1.4" opacity="0.42"/>
  </g>
  </g>
  <g id="core_frontier_edge_h" transform="translate(64 192)" clip-path="url(#tile_clip)">
<defs>
    <clipPath id="tile_clip"><rect x="0" y="0" width="64" height="64"/></clipPath>
  </defs>
  <g clip-path="url(#tile_clip)">
    <rect x="0" y="0" width="64" height="64" fill="#120a18"/>
    <rect x="0" y="0" width="64" height="64" fill="#291431" opacity="0.50"/>
    <path d="M0 32 H64 M32 0 V64" fill="none" stroke="#d091ff" stroke-width="1" opacity="0.08"/>
    <rect x="0" y="21" width="64" height="22" fill="#724287" opacity="0.22"/>
    <path d="M0 24 H64 M0 40 H64" fill="none" stroke="#d091ff" stroke-width="2.2" stroke-linecap="square" opacity="0.82"/>
    <path d="M0 32 H64" fill="none" stroke="#ff9be8" stroke-width="1.1" stroke-linecap="square" opacity="0.34"/>
    <circle cx="48" cy="32" r="8" fill="none" stroke="#724287" stroke-width="1.4" opacity="0.42"/>
  </g>
  </g>
  <g id="core_frontier_edge_v" transform="translate(128 192)" clip-path="url(#tile_clip)">
<defs>
    <clipPath id="tile_clip"><rect x="0" y="0" width="64" height="64"/></clipPath>
  </defs>
  <g clip-path="url(#tile_clip)">
    <rect x="0" y="0" width="64" height="64" fill="#120a18"/>
    <rect x="0" y="0" width="64" height="64" fill="#291431" opacity="0.50"/>
    <path d="M0 32 H64 M32 0 V64" fill="none" stroke="#d091ff" stroke-width="1" opacity="0.08"/>
    <rect x="21" y="0" width="22" height="64" fill="#724287" opacity="0.22"/>
    <path d="M24 0 V64 M40 0 V64" fill="none" stroke="#d091ff" stroke-width="2.2" stroke-linecap="square" opacity="0.82"/>
    <path d="M32 0 V64" fill="none" stroke="#ff9be8" stroke-width="1.1" stroke-linecap="square" opacity="0.34"/>
    <circle cx="48" cy="32" r="8" fill="none" stroke="#724287" stroke-width="1.4" opacity="0.42"/>
  </g>
  </g>
  <g id="core_frontier_corner_ne" transform="translate(192 192)" clip-path="url(#tile_clip)">
<defs>
    <clipPath id="tile_clip"><rect x="0" y="0" width="64" height="64"/></clipPath>
  </defs>
  <g clip-path="url(#tile_clip)">
    <rect x="0" y="0" width="64" height="64" fill="#120a18"/>
    <rect x="0" y="0" width="64" height="64" fill="#291431" opacity="0.50"/>
    <path d="M0 32 H64 M32 0 V64" fill="none" stroke="#d091ff" stroke-width="1" opacity="0.08"/>
    <path d="M0 24 H40 V64 M0 40 H24 V64" fill="none" stroke="#d091ff" stroke-width="2.2" stroke-linecap="square" stroke-linejoin="round" opacity="0.82"/>
    <path d="M0 32 H32 V64" fill="none" stroke="#ff9be8" stroke-width="1.1" opacity="0.34"/>
    <path d="M22 22 H42 V42" fill="none" stroke="#724287" stroke-width="8" opacity="0.18"/>
    <circle cx="48" cy="32" r="8" fill="none" stroke="#724287" stroke-width="1.4" opacity="0.42"/>
  </g>
  </g>
  <g id="core_frontier_corner_nw" transform="translate(256 192)" clip-path="url(#tile_clip)">
<defs>
    <clipPath id="tile_clip"><rect x="0" y="0" width="64" height="64"/></clipPath>
  </defs>
  <g clip-path="url(#tile_clip)">
    <rect x="0" y="0" width="64" height="64" fill="#120a18"/>
    <rect x="0" y="0" width="64" height="64" fill="#291431" opacity="0.50"/>
    <path d="M0 32 H64 M32 0 V64" fill="none" stroke="#d091ff" stroke-width="1" opacity="0.08"/>
    <path d="M64 24 H24 V64 M64 40 H40 V64" fill="none" stroke="#d091ff" stroke-width="2.2" stroke-linecap="square" stroke-linejoin="round" opacity="0.82"/>
    <path d="M64 32 H32 V64" fill="none" stroke="#ff9be8" stroke-width="1.1" opacity="0.34"/>
    <path d="M42 22 H22 V42" fill="none" stroke="#724287" stroke-width="8" opacity="0.18"/>
    <circle cx="48" cy="32" r="8" fill="none" stroke="#724287" stroke-width="1.4" opacity="0.42"/>
  </g>
  </g>
  <g id="core_frontier_corner_se" transform="translate(320 192)" clip-path="url(#tile_clip)">
<defs>
    <clipPath id="tile_clip"><rect x="0" y="0" width="64" height="64"/></clipPath>
  </defs>
  <g clip-path="url(#tile_clip)">
    <rect x="0" y="0" width="64" height="64" fill="#120a18"/>
    <rect x="0" y="0" width="64" height="64" fill="#291431" opacity="0.50"/>
    <path d="M0 32 H64 M32 0 V64" fill="none" stroke="#d091ff" stroke-width="1" opacity="0.08"/>
    <path d="M0 24 H24 V0 M0 40 H40 V0" fill="none" stroke="#d091ff" stroke-width="2.2" stroke-linecap="square" stroke-linejoin="round" opacity="0.82"/>
    <path d="M0 32 H32 V0" fill="none" stroke="#ff9be8" stroke-width="1.1" opacity="0.34"/>
    <path d="M22 42 H42 V22" fill="none" stroke="#724287" stroke-width="8" opacity="0.18"/>
    <circle cx="48" cy="32" r="8" fill="none" stroke="#724287" stroke-width="1.4" opacity="0.42"/>
  </g>
  </g>
  <g id="core_frontier_corner_sw" transform="translate(384 192)" clip-path="url(#tile_clip)">
<defs>
    <clipPath id="tile_clip"><rect x="0" y="0" width="64" height="64"/></clipPath>
  </defs>
  <g clip-path="url(#tile_clip)">
    <rect x="0" y="0" width="64" height="64" fill="#120a18"/>
    <rect x="0" y="0" width="64" height="64" fill="#291431" opacity="0.50"/>
    <path d="M0 32 H64 M32 0 V64" fill="none" stroke="#d091ff" stroke-width="1" opacity="0.08"/>
    <path d="M64 24 H40 V0 M64 40 H24 V0" fill="none" stroke="#d091ff" stroke-width="2.2" stroke-linecap="square" stroke-linejoin="round" opacity="0.82"/>
    <path d="M64 32 H32 V0" fill="none" stroke="#ff9be8" stroke-width="1.1" opacity="0.34"/>
    <path d="M42 42 H22 V22" fill="none" stroke="#724287" stroke-width="8" opacity="0.18"/>
    <circle cx="48" cy="32" r="8" fill="none" stroke="#724287" stroke-width="1.4" opacity="0.42"/>
  </g>
  </g>
  <g id="core_frontier_end_cap" transform="translate(448 192)" clip-path="url(#tile_clip)">
<defs>
    <clipPath id="tile_clip"><rect x="0" y="0" width="64" height="64"/></clipPath>
  </defs>
  <g clip-path="url(#tile_clip)">
    <rect x="0" y="0" width="64" height="64" fill="#120a18"/>
    <rect x="0" y="0" width="64" height="64" fill="#291431" opacity="0.50"/>
    <path d="M0 32 H64 M32 0 V64" fill="none" stroke="#d091ff" stroke-width="1" opacity="0.08"/>
    <rect x="0" y="21" width="36" height="22" fill="#724287" opacity="0.22"/>
    <path d="M0 24 H34 M0 40 H34" fill="none" stroke="#d091ff" stroke-width="2.2" stroke-linecap="square" opacity="0.82"/>
    <path d="M35 17 V47 M42 22 V42 M49 27 V37" fill="none" stroke="#ff9be8" stroke-width="2" stroke-linecap="square" opacity="0.70"/>
    <path d="M0 32 H31" fill="none" stroke="#ff9be8" stroke-width="1.1" opacity="0.34"/>
    <circle cx="48" cy="32" r="8" fill="none" stroke="#724287" stroke-width="1.4" opacity="0.42"/>
  </g>
  </g>
  <g id="core_frontier_edge_diag_down" transform="translate(512 192)" clip-path="url(#tile_clip)">
<defs>
    <clipPath id="tile_clip"><rect x="0" y="0" width="64" height="64"/></clipPath>
  </defs>
  <g clip-path="url(#tile_clip)">
    <rect x="0" y="0" width="64" height="64" fill="#120a18"/>
    <rect x="0" y="0" width="64" height="64" fill="#291431" opacity="0.50"/>
    <path d="M0 32 H64 M32 0 V64" fill="none" stroke="#d091ff" stroke-width="1" opacity="0.08"/>
    <path d="M-8 14 L50 72 M14 -8 L72 50" fill="none" stroke="#d091ff" stroke-width="2.2" stroke-linecap="square" opacity="0.84"/>
    <path d="M2 2 L62 62" fill="none" stroke="#ff9be8" stroke-width="1.2" stroke-linecap="square" opacity="0.38"/>
    <path d="M-5 24 L40 69 M24 -5 L69 40" fill="none" stroke="#724287" stroke-width="7" opacity="0.16"/>
    <circle cx="48" cy="32" r="8" fill="none" stroke="#724287" stroke-width="1.4" opacity="0.42"/>
  </g>
  </g>
  <g id="core_frontier_edge_diag_up" transform="translate(576 192)" clip-path="url(#tile_clip)">
<defs>
    <clipPath id="tile_clip"><rect x="0" y="0" width="64" height="64"/></clipPath>
  </defs>
  <g clip-path="url(#tile_clip)">
    <rect x="0" y="0" width="64" height="64" fill="#120a18"/>
    <rect x="0" y="0" width="64" height="64" fill="#291431" opacity="0.50"/>
    <path d="M0 32 H64 M32 0 V64" fill="none" stroke="#d091ff" stroke-width="1" opacity="0.08"/>
    <path d="M-8 50 L50 -8 M14 72 L72 14" fill="none" stroke="#d091ff" stroke-width="2.2" stroke-linecap="square" opacity="0.84"/>
    <path d="M2 62 L62 2" fill="none" stroke="#ff9be8" stroke-width="1.2" stroke-linecap="square" opacity="0.38"/>
    <path d="M-5 40 L40 -5 M24 69 L69 24" fill="none" stroke="#724287" stroke-width="7" opacity="0.16"/>
    <circle cx="48" cy="32" r="8" fill="none" stroke="#724287" stroke-width="1.4" opacity="0.42"/>
  </g>
  </g>
</svg>

